<?xml version="1.0" standalone="no"?>
<!DOCTYPE svg PUBLIC "-//W3C//DTD SVG 20010904//EN"
 "http://www.w3.org/TR/2001/REC-SVG-20010904/DTD/svg10.dtd">
<svg version="1.0" xmlns="http://www.w3.org/2000/svg"
 width="1024.000000pt" height="1024.000000pt" viewBox="0 0 1024.000000 1024.000000"
 preserveAspectRatio="xMidYMid meet">
<metadata>
Created by potrace 1.14, written by Peter Selinger 2001-2017
</metadata>
<g transform="translate(0.000000,1024.000000) scale(0.100000,-0.100000)"
fill="#000000" stroke="none">
<path d="M4858 10235 c-2 -1 -50 -6 -106 -9 -57 -4 -118 -8 -135 -11 -18 -2
-54 -7 -82 -9 -80 -8 -140 -17 -345 -51 -50 -9 -216 -44 -245 -53 -185 -55
-314 -254 -298 -457 4 -53 52 -204 86 -270 11 -22 20 -42 20 -45 -1 -6 -5 6
102 -265 48 -121 93 -233 100 -250 7 -16 54 -133 104 -260 50 -126 96 -239
101 -250 5 -11 34 -85 65 -165 31 -80 72 -173 91 -208 100 -179 307 -280 536
-263 73 6 369 6 568 1 75 -2 124 2 170 15 145 38 276 136 338 253 35 67 635
1567 652 1632 29 107 9 238 -50 340 -86 147 -193 201 -500 250 -36 5 -76 12
-90 15 -23 5 -45 8 -140 20 -25 3 -56 8 -70 10 -14 2 -61 7 -105 10 -44 4 -98
9 -120 12 -48 5 -642 13 -647 8z"/>
<path d="M2595 9544 c-94 -22 -124 -37 -295 -150 -105 -68 -390 -280 -464
-345 -240 -208 -566 -532 -566 -562 0 -5 -9 -21 -20 -37 -47 -67 -59 -226 -25
-331 16 -48 62 -129 97 -169 30 -35 126 -104 333 -240 121 -80 222 -147 225
-150 3 -3 57 -39 120 -80 63 -41 120 -79 125 -83 6 -5 80 -55 165 -111 85 -56
230 -153 323 -215 92 -61 184 -120 205 -131 170 -88 424 -53 589 82 129 106
170 144 218 205 30 37 84 149 91 190 34 182 30 206 -83 488 -95 236 -104 257
-118 290 -7 17 -58 143 -113 280 -257 640 -311 773 -333 820 -36 79 -149 184
-234 219 -68 27 -188 43 -240 30z"/>
<path d="M7440 9529 c-98 -32 -177 -93 -239 -182 -15 -23 -51 -100 -80 -172
-29 -71 -56 -139 -61 -150 -5 -11 -129 -319 -276 -685 l-267 -665 -3 -102 c-7
-205 71 -346 286 -520 147 -119 266 -164 422 -158 66 2 110 9 153 25 80 31
1473 960 1537 1025 101 105 151 284 116 414 -31 112 -68 161 -278 371 -261
261 -507 463 -790 650 -69 45 -136 90 -150 99 -101 68 -252 88 -370 50z"/>
<path d="M765 7400 c-80 -10 -128 -27 -191 -68 -103 -68 -133 -115 -227 -357
-87 -223 -196 -580 -231 -760 -32 -159 -61 -328 -72 -425 -3 -25 -7 -56 -10
-70 -3 -14 -7 -71 -9 -128 -3 -83 0 -114 16 -159 52 -151 169 -258 327 -298
50 -13 186 -15 938 -13 l879 3 60 24 c150 59 279 195 330 346 13 37 30 106 41
163 3 13 16 69 29 125 24 97 33 218 21 277 -3 14 -9 39 -12 55 -12 58 -75 172
-122 221 -31 33 -285 208 -756 522 -390 260 -731 484 -757 497 -77 40 -168 56
-254 45z"/>
<path d="M9339 7394 c-36 -7 -89 -24 -117 -38 -41 -21 -458 -292 -497 -323 -6
-4 -224 -150 -485 -323 -305 -202 -494 -334 -528 -368 -121 -122 -172 -325
-129 -512 8 -36 25 -110 37 -165 57 -257 156 -406 326 -493 102 -52 94 -52
1015 -52 941 0 912 -2 1031 62 63 33 147 117 177 177 39 76 51 139 46 245 -2
55 -7 112 -9 125 -3 12 -7 42 -10 65 -23 196 -103 580 -156 751 -81 262 -158
472 -223 616 -54 117 -192 219 -317 234 -30 4 -64 8 -75 9 -11 2 -50 -3 -86
-10z"/>
<path d="M5020 6703 c-83 -28 -151 -89 -192 -172 l-23 -46 0 -2805 0 -2805 25
-50 c61 -121 172 -187 307 -181 117 5 214 69 270 177 l28 54 3 2786 c1 2008
-1 2795 -9 2820 -32 98 -89 166 -174 208 -61 30 -169 37 -235 14z"/>
<path d="M3740 6063 c-83 -28 -151 -89 -192 -172 l-23 -46 -3 -2466 c-1 -1776
1 -2475 9 -2500 32 -98 88 -166 174 -209 42 -20 64 -25 135 -25 73 1 93 4 139
28 64 33 120 90 152 155 l24 47 3 2466 c1 1776 -1 2475 -9 2500 -32 98 -89
166 -174 208 -61 30 -169 37 -235 14z"/>
<path d="M6325 6071 c-109 -28 -193 -107 -229 -216 -15 -47 -16 -246 -14
-2515 l3 -2465 24 -49 c33 -67 90 -122 159 -154 77 -36 193 -37 264 -3 84 41
143 108 172 196 15 47 16 246 14 2515 l-3 2465 -25 49 c-54 108 -154 175 -269
181 -36 2 -79 1 -96 -4z"/>
<path d="M361 4464 c-152 -41 -272 -148 -332 -299 l-24 -60 -2 -560 c-2 -347
1 -577 7 -605 17 -77 75 -181 132 -238 56 -57 161 -114 238 -132 29 -6 365 -9
925 -7 l880 2 60 24 c152 61 259 180 300 336 21 83 21 1112 -1 1194 -45 167
-178 300 -345 345 -80 22 -1758 22 -1838 0z"/>
<path d="M8045 4465 c-70 -19 -104 -35 -161 -74 -59 -42 -126 -118 -154 -178
-49 -106 -51 -121 -47 -719 2 -519 4 -563 21 -609 43 -113 127 -212 227 -265
113 -60 84 -59 1024 -59 953 -1 931 -2 1044 65 102 60 171 143 212 254 l24 65
0 580 0 580 -25 62 c-60 149 -180 257 -330 297 -79 21 -1758 22 -1835 1z"/>
<path d="M365 1905 c-70 -19 -104 -35 -161 -74 -59 -42 -126 -118 -154 -178
-49 -106 -51 -121 -47 -719 2 -519 4 -563 21 -609 43 -113 127 -212 227 -265
113 -60 84 -59 1024 -59 953 -1 931 -2 1044 65 102 60 171 143 212 254 l24 65
0 580 0 580 -25 62 c-60 149 -180 257 -330 297 -79 21 -1758 22 -1835 1z"/>
<path d="M8045 1905 c-70 -19 -104 -35 -161 -74 -59 -42 -126 -118 -154 -178
-49 -106 -51 -121 -47 -719 2 -519 4 -563 21 -609 43 -113 127 -212 227 -265
113 -60 84 -59 1024 -59 953 -1 931 -2 1044 65 102 60 171 143 212 254 l24 65
0 580 0 580 -25 62 c-60 149 -180 257 -330 297 -79 21 -1758 22 -1835 1z"/>
</g>
</svg>
